<?xml version="1.0" encoding="UTF-8"?>
<svg viewBox="0 0 264 193" xmlns="http://www.w3.org/2000/svg">
 <path d="m103 12.031c46 1 93 24 94 69 0 22-13 37-32 46 9 2 16 7 16 13 0 4-2 6-5 8 4 0 7 2 7 5 0 5-15 5-15-1v-1c-14 4-35-1-36-12v-1c-53 8-120-15-122-64 0-42 46-63 93-62" fill-opacity=".498"/>
 <path d="m12 67.031c4 83 183 92 185 8-2-75.998-185-78.998-185-8z" fill="#fff" stroke="#000" stroke-width="3"/>
 <path d="m131 135.03c1 17 47 19 48 2-1-19-48-19-48-2z" fill="#fff" stroke="#000" stroke-width="3"/>
 <path d="m169 149.03c0 5 14 6 14 0s-14-6-14 0z" fill="#fff" stroke="#000" stroke-width="3"/>
 <path d="m222 166.03c23-25 17-12 24-32" fill="none" stroke="#000" stroke-width="5"/>
 <path d="m196 141.03c-5 1-9 10-7 17 1 8 8 14 12 13 5-1 9-9 7-17-1-7-8-14-12-13z" fill="#f9e1e1" stroke="#000" stroke-width="3"/>
 <path d="m223 142.03c-5-1-12 5-14 12s1 16 5 17c5 1 12-4 14-12 3-7 0-15-5-17z" fill="#f7dfdf" stroke="#000" stroke-width="3"/>
 <path d="m198 160.03c-2 0-2 3-2 5 1 2 4 4 5 3 2-1 2-3 2-5-1-2-4-4-5-3z" fill="#1a1a1a" stroke="#000"/>
 <path d="m218 159.03c-1 0-4 1-5 3 0 2 0 5 2 6 1 0 4-1 5-3 0-2 0-5-2-6z" fill="#1a1a1a" stroke="#000"/>
 <path d="m229 142.03c-5-7-18-19-21-3" fill="none" stroke="#000" stroke-linecap="round" stroke-width="3"/>
 <path d="m188 138.03c6-7 21-16 20 0" fill="none" stroke="#000" stroke-linecap="round" stroke-width="3"/>
 <path d="m227 176.03c-3 0-5 1-5 3 0 1 2 2 5 2 2 0 4-1 4-2 0-2-2-3-4-3z" fill="#e5e5e5" stroke="#000" stroke-width="3"/>
 <path d="m191 174.03c-2 0-4 2-4 4s2 3 4 3 4-1 4-3-2-4-4-4z" fill="#e5e5e5" stroke="#000" stroke-width="3"/>
 <path d="m218 174.03c-2 0-4 2-4 4s2 4 4 4 4-2 4-4-2-4-4-4z" fill="#e5e5e5" stroke="#000" stroke-width="3"/>
 <path d="m184 177.03c-2 0-4 1-4 2 0 2 2 3 4 3s4-1 4-3c0-1-2-2-4-2z" fill="#e5e5e5" stroke="#000" stroke-width="3"/>
 <path d="m199 175.03c-2 0-3 2-3 3 0 2 1 3 3 3 1 0 3-1 3-3 0-1-2-3-3-3z" fill="#e5e5e5" stroke="#000" stroke-width="3"/>
 <path d="m245 134.03c4-21.5 4-14.335 4-21.5" fill="none" stroke="#000" stroke-linecap="round" stroke-linejoin="round" stroke-width="3"/>
 <path d="m246 131.03 7-7" fill="none" stroke="#000" stroke-linecap="round" stroke-linejoin="round" stroke-width="3"/>
 <path d="m246 134.53 8-4" fill="none" stroke="#000" stroke-linecap="round" stroke-linejoin="round" stroke-width="3"/>
 <path d="m246 132.03c-5-8-2-6-7-8" fill="none" stroke="#000" stroke-linecap="round" stroke-linejoin="round" stroke-width="3"/>
</svg>
